<svg xmlns="http://www.w3.org/2000/svg" viewBox="0 0 600 160" fill="none">
  <defs>
    <linearGradient id="iconGradDark" x1="0" y1="0" x2="1" y2="1">
      <stop offset="0%" stop-color="#3b82f6"/>
      <stop offset="100%" stop-color="#93c5fd"/>
    </linearGradient>
    <linearGradient id="arrowGradDark" x1="0" y1="1" x2="1" y2="0">
      <stop offset="0%" stop-color="#60a5fa"/>
      <stop offset="100%" stop-color="#bfdbfe"/>
    </linearGradient>
  </defs>

  <!-- Icon -->
  <g transform="translate(44, 80)">
    <path d="M 0,-24 L 24,0 L 0,24 L -24,0 Z" fill="#1a1a2e"/>
    <path d="M 0,-24 L 24,0 L 0,24 L 0,0 Z" fill="url(#iconGradDark)" opacity="0.5"/>
    <path d="M 0,-24 L 24,0 L 0,0 Z" fill="url(#iconGradDark)"/>
    <path d="M -24,0 L 0,24 L 0,0 Z" fill="#3b82f6"/>
    <path d="M -4,6 L 2,0 L -1,0 L -1,-10 L 9,-10 L 9,-2 L 6,-2 L 11,5 L 6,10 L 3,7 L 3,2 Z" fill="#0f172a"/>
  </g>

  <text x="90" y="96" font-family="Inter, -apple-system, BlinkMacSystemFont, 'Segoe UI', sans-serif" font-size="44" font-weight="700" fill="#f4f4f5" letter-spacing="-0.02em">Its</text>
  <text x="152" y="96" font-family="Inter, -apple-system, BlinkMacSystemFont, 'Segoe UI', sans-serif" font-size="44" font-weight="700" fill="#f4f4f5" letter-spacing="-0.02em">Worth</text>
  <text x="310" y="96" font-family="Inter, -apple-system, BlinkMacSystemFont, 'Segoe UI', sans-serif" font-size="44" font-weight="700" fill="#f4f4f5" letter-spacing="-0.02em">More</text>

  <text x="90" y="126" font-family="Inter, -apple-system, BlinkMacSystemFont, 'Segoe UI', sans-serif" font-size="13" font-weight="400" fill="#a1a1aa" letter-spacing="0.15em">
    Turn Your Devices Into Opportunity
  </text>
</svg>
